# xmcd
#
# Track frame offsets:
#	150
#	25084
#	41387
#	55933
#	78167
#	112076
#	130984
#	157069
#	175756
#	191193
#	213996
#	228332
#	243318
#
# Disc length: 3493 seconds
#
# Revision: 1
# Processed by: cddbd v1.5.1PL0 Copyright (c) Steve Scherf et al.
# Submitted via: audiograbber 1.83.01
#
DISCID=ab0da30d
DTITLE=Various Artist - Larina Blues
DYEAR=2002
DGENRE=Blues
TTITLE0=Buddy Guy - She's Nineteen years old
TTITLE1=Larry McRay - Whitchin' Moon
TTITLE2=Colin James - Cadillac (Baby)
TTITLE3=Blind Boys of Alabama - Jesus Gonna Be Here
TTITLE4=Jeff Beck - Blues DeLuxe
TTITLE5=Ten Years After - Me and My Baby
TTITLE6=Patti Drew - Beggar for the Blues
TTITLE7=John Mayall - Not At Home (feat. Mick Taylor)
TTITLE8=Dr. John - I don't Wanna Know
TTITLE9=Albert Collins - Iceman
TTITLE10=Tina Britt - Sookie Sookie
TTITLE11=Animals - Boom Boom
TTITLE12=Gary Moore -Still Got the Blues
EXTD=This is an obscure CD bought in a small shop in L'vov, Ukraine in the fall
EXTD=of 2002
EXTT0=
EXTT1=
EXTT2=
EXTT3=
EXTT4=
EXTT5=
EXTT6=
EXTT7=
EXTT8=
EXTT9=
EXTT10=
EXTT11=
EXTT12=
PLAYORDER=
